<svg width="30" height="26" viewBox="0 0 30 26" fill="none" xmlns="http://www.w3.org/2000/svg">
<g clip-path="url(#clip0_14_2513)">
<path d="M6.8182 25.872V12.5474L3.22348 8.76686L0 6.66895V23.5206C0 24.8217 0.916992 25.872 2.04551 25.872H6.8182Z" fill="#4285F4"/>
<path d="M23.1818 25.872H27.9545C29.0864 25.872 30 24.8177 30 23.5206V6.66907L26.3489 9.07198L23.1818 12.5474V25.872Z" fill="#34A853"/>
<path d="M6.81821 12.5473L6.32907 7.34101L6.81821 2.35803L15 9.41225L23.1818 2.35803L23.729 7.07198L23.1818 12.5473L15 19.6016L6.81821 12.5473Z" fill="#EA4335"/>
<path d="M23.1818 2.35838V12.5477L30 6.66926V3.53403C30 0.626211 27.1125 -1.03146 25.091 0.712428L23.1818 2.35838Z" fill="#FBBC04"/>
<path d="M0 6.66895L3.13582 9.37268L6.8182 12.5474V2.35807L4.90898 0.712124C2.88398 -1.0319 0 0.625906 0 3.5336V6.66882V6.66895Z" fill="#C5221F"/>
</g>
<defs>
<clipPath id="clip0_14_2513">
<rect width="30" height="26" fill="white"/>
</clipPath>
</defs>
</svg>
